<svg width="48" height="48" viewBox="0 0 48 48" fill="none" xmlns="http://www.w3.org/2000/svg">
  <path
    d="M36.021 20.43L18.174 38.28C17.217 39.234 16.017 39.915 14.706 40.242L7.857 41.952C7.60697 42.0144 7.34504 42.0111 7.09667 41.9424C6.8483 41.8737 6.62193 41.7419 6.43956 41.5598C6.25718 41.3777 6.125 41.1516 6.05587 40.9033C5.98673 40.655 5.98299 40.3931 6.045 40.143L7.755 33.294C8.08464 31.981 8.76488 30.7823 9.723 29.826L27.567 11.976L36.021 20.427V20.43ZM40.251 7.75199C42.582 10.086 42.582 13.869 40.251 16.203L38.133 18.315L29.682 9.86099L31.797 7.75199C32.9177 6.63138 34.4376 6.00183 36.0225 6.00183C37.6073 6.00183 39.1273 6.63138 40.248 7.75199H40.251Z"
    fill="black" />
</svg>
