<svg width="52" height="54" viewBox="0 0 52 54" fill="none" xmlns="http://www.w3.org/2000/svg">
  <g filter="url(#filter0_d_475_2)">
    <path
      d="M26 2.66666C21.7806 2.66666 17.6561 3.91783 14.1478 6.26197C10.6396 8.60611 7.90521 11.9379 6.29054 15.8361C4.67587 19.7342 4.2534 24.0237 5.07655 28.1619C5.8997 32.3002 7.9315 36.1014 10.915 39.0849C13.8985 42.0685 17.6998 44.1003 21.838 44.9234C25.9763 45.7466 30.2657 45.3241 34.1639 43.7094C38.062 42.0948 41.3939 39.3604 43.738 35.8522C46.0821 32.3439 47.3333 28.2193 47.3333 24C47.3333 18.342 45.0857 12.9158 41.0849 8.91505C37.0841 4.91427 31.6579 2.66666 26 2.66666V2.66666ZM39.9333 16.84L22.4133 34.3467L12.0666 24C11.713 23.6464 11.5144 23.1668 11.5144 22.6667C11.5144 22.1666 11.713 21.6869 12.0666 21.3333C12.4203 20.9797 12.8999 20.781 13.4 20.781C13.9001 20.781 14.3797 20.9797 14.7333 21.3333L22.44 29.04L37.2933 14.2C37.4684 14.0249 37.6763 13.886 37.905 13.7912C38.1338 13.6965 38.379 13.6477 38.6266 13.6477C38.8743 13.6477 39.1195 13.6965 39.3482 13.7912C39.577 13.886 39.7849 14.0249 39.96 14.2C40.1351 14.3751 40.274 14.583 40.3687 14.8117C40.4635 15.0405 40.5123 15.2857 40.5123 15.5333C40.5123 15.7809 40.4635 16.0261 40.3687 16.2549C40.274 16.4837 40.1351 16.6916 39.96 16.8667L39.9333 16.84Z"
      fill="#18A96C" />
  </g>
  <defs>
    <filter id="filter0_d_475_2" x="-2" y="0" width="56" height="56" filterUnits="userSpaceOnUse"
      color-interpolation-filters="sRGB">
      <feFlood flood-opacity="0" result="BackgroundImageFix" />
      <feColorMatrix in="SourceAlpha" type="matrix" values="0 0 0 0 0 0 0 0 0 0 0 0 0 0 0 0 0 0 127 0"
        result="hardAlpha" />
      <feOffset dy="4" />
      <feGaussianBlur stdDeviation="2" />
      <feComposite in2="hardAlpha" operator="out" />
      <feColorMatrix type="matrix" values="0 0 0 0 0 0 0 0 0 0 0 0 0 0 0 0 0 0 0.25 0" />
      <feBlend mode="normal" in2="BackgroundImageFix" result="effect1_dropShadow_475_2" />
      <feBlend mode="normal" in="SourceGraphic" in2="effect1_dropShadow_475_2" result="shape" />
    </filter>
  </defs>
</svg>
